<svg width="256" height="256" viewBox="0 0 128 128" fill="none" xmlns="http://www.w3.org/2000/svg">
  <defs>
    <linearGradient id="brand-gradient" x1="22" y1="24" x2="104" y2="106" gradientUnits="userSpaceOnUse">
      <stop offset="0" stop-color="#F76F85"/>
      <stop offset="0.55" stop-color="#F3A56A"/>
      <stop offset="1" stop-color="#F6C24D"/>
    </linearGradient>
  </defs>
  <rect x="5" y="5" width="118" height="118" rx="24" fill="#081730"/>
  <rect x="5.5" y="5.5" width="117" height="117" rx="23.5" stroke="rgba(255,255,255,0.08)"/>
  <g stroke="url(#brand-gradient)" stroke-width="8" stroke-linecap="round" stroke-linejoin="round">
    <path d="M24 39.5L64 18L103 39.5L103 46.5"/>
    <path d="M103 56.5L103 88.5L64 109.5L36.5 93"/>
    <path d="M24 86.5L24 75"/>
    <path d="M24 64L24 39.5"/>
    <path d="M79 50.5L64 42L49.5 50.5L49.5 58.5"/>
    <path d="M49.5 58.5L80.5 77"/>
    <path d="M80.5 77L80.5 87.5L64 97L51 89.5"/>
  </g>
</svg>
